<svg width="189" height="24" viewBox="0 0 189 24" fill="none" xmlns="http://www.w3.org/2000/svg">
<path d="M8.264 2.2C9.752 2.2 11.04 2.448 12.128 2.944C13.232 3.44 14.08 4.144 14.672 5.056C15.264 5.968 15.56 7.048 15.56 8.296C15.56 9.528 15.264 10.608 14.672 11.536C14.08 12.448 13.232 13.152 12.128 13.648C11.04 14.128 9.752 14.368 8.264 14.368H4.88V19H0.992V2.2H8.264ZM8.048 11.2C9.216 11.2 10.104 10.952 10.712 10.456C11.32 9.944 11.624 9.224 11.624 8.296C11.624 7.352 11.32 6.632 10.712 6.136C10.104 5.624 9.216 5.368 8.048 5.368H4.88V11.2H8.048ZM21.6478 7.792C22.0958 7.168 22.6958 6.696 23.4478 6.376C24.2158 6.056 25.0958 5.896 26.0878 5.896V9.352C25.6718 9.32 25.3918 9.304 25.2478 9.304C24.1758 9.304 23.3358 9.608 22.7278 10.216C22.1198 10.808 21.8158 11.704 21.8158 12.904V19H18.0718V6.088H21.6478V7.792ZM28.3139 6.088H32.0579V19H28.3139V6.088ZM30.1859 4.288C29.4979 4.288 28.9379 4.088 28.5059 3.688C28.0739 3.288 27.8579 2.792 27.8579 2.2C27.8579 1.608 28.0739 1.112 28.5059 0.711999C28.9379 0.311999 29.4979 0.111999 30.1859 0.111999C30.8739 0.111999 31.4339 0.303999 31.8659 0.688C32.2979 1.072 32.5139 1.552 32.5139 2.128C32.5139 2.752 32.2979 3.272 31.8659 3.688C31.4339 4.088 30.8739 4.288 30.1859 4.288ZM52.0687 5.896C53.6847 5.896 54.9647 6.376 55.9087 7.336C56.8687 8.28 57.3487 9.704 57.3487 11.608V19H53.6047V12.184C53.6047 11.16 53.3887 10.4 52.9567 9.904C52.5407 9.392 51.9407 9.136 51.1567 9.136C50.2767 9.136 49.5807 9.424 49.0687 10C48.5567 10.56 48.3007 11.4 48.3007 12.52V19H44.5567V12.184C44.5567 10.152 43.7407 9.136 42.1087 9.136C41.2447 9.136 40.5567 9.424 40.0447 10C39.5327 10.56 39.2767 11.4 39.2767 12.52V19H35.5327V6.088H39.1087V7.576C39.5887 7.032 40.1727 6.616 40.8607 6.328C41.5647 6.04 42.3327 5.896 43.1647 5.896C44.0767 5.896 44.9007 6.08 45.6367 6.448C46.3727 6.8 46.9647 7.32 47.4127 8.008C47.9407 7.336 48.6047 6.816 49.4047 6.448C50.2207 6.08 51.1087 5.896 52.0687 5.896ZM73.7126 6.088V19H70.1606V17.464C69.6646 18.024 69.0726 18.456 68.3846 18.76C67.6966 19.048 66.9526 19.192 66.1526 19.192C64.4566 19.192 63.1126 18.704 62.1206 17.728C61.1286 16.752 60.6326 15.304 60.6326 13.384V6.088H64.3766V12.832C64.3766 14.912 65.2486 15.952 66.9926 15.952C67.8886 15.952 68.6086 15.664 69.1526 15.088C69.6966 14.496 69.9686 13.624 69.9686 12.472V6.088H73.7126ZM87.9331 16.12V19H76.4131V16.744L78.9811 13.72H77.2291V11.224H81.0931L82.9891 8.968H76.5811V6.088H87.7171V8.344L85.2691 11.248H87.0931V13.744H83.1571L81.1411 16.12H87.9331ZM103.047 10.264C104.007 10.568 104.759 11.08 105.303 11.8C105.847 12.504 106.119 13.376 106.119 14.416C106.119 15.888 105.543 17.024 104.391 17.824C103.255 18.608 101.591 19 99.3988 19H90.7108V2.2H98.9188C100.967 2.2 102.535 2.592 103.623 3.376C104.727 4.16 105.279 5.224 105.279 6.568C105.279 7.384 105.079 8.112 104.679 8.752C104.295 9.392 103.751 9.896 103.047 10.264ZM94.5748 5.128V9.088H98.4388C99.3988 9.088 100.127 8.92 100.623 8.584C101.119 8.248 101.367 7.752 101.367 7.096C101.367 6.44 101.119 5.952 100.623 5.632C100.127 5.296 99.3988 5.128 98.4388 5.128H94.5748ZM99.1108 16.072C100.135 16.072 100.903 15.904 101.415 15.568C101.943 15.232 102.207 14.712 102.207 14.008C102.207 12.616 101.175 11.92 99.1108 11.92H94.5748V16.072H99.1108ZM121.806 6.088V19H118.254V17.464C117.758 18.024 117.166 18.456 116.478 18.76C115.79 19.048 115.046 19.192 114.246 19.192C112.55 19.192 111.206 18.704 110.214 17.728C109.222 16.752 108.726 15.304 108.726 13.384V6.088H112.47V12.832C112.47 14.912 113.342 15.952 115.086 15.952C115.982 15.952 116.702 15.664 117.246 15.088C117.79 14.496 118.062 13.624 118.062 12.472V6.088H121.806ZM128.851 7.792C129.299 7.168 129.899 6.696 130.651 6.376C131.419 6.056 132.299 5.896 133.291 5.896V9.352C132.875 9.32 132.595 9.304 132.451 9.304C131.379 9.304 130.539 9.608 129.931 10.216C129.323 10.808 129.019 11.704 129.019 12.904V19H125.275V6.088H128.851V7.792ZM148.72 6.088V16.84C148.72 19.208 148.104 20.968 146.872 22.12C145.64 23.272 143.84 23.848 141.472 23.848C140.224 23.848 139.04 23.696 137.92 23.392C136.8 23.088 135.872 22.648 135.136 22.072L136.624 19.384C137.168 19.832 137.856 20.184 138.688 20.44C139.52 20.712 140.352 20.848 141.184 20.848C142.48 20.848 143.432 20.552 144.04 19.96C144.664 19.384 144.976 18.504 144.976 17.32V16.768C144 17.84 142.64 18.376 140.896 18.376C139.712 18.376 138.624 18.12 137.632 17.608C136.656 17.08 135.88 16.344 135.304 15.4C134.728 14.456 134.44 13.368 134.44 12.136C134.44 10.904 134.728 9.816 135.304 8.872C135.88 7.928 136.656 7.2 137.632 6.688C138.624 6.16 139.712 5.896 140.896 5.896C142.768 5.896 144.192 6.512 145.168 7.744V6.088H148.72ZM141.64 15.304C142.632 15.304 143.44 15.016 144.064 14.44C144.704 13.848 145.024 13.08 145.024 12.136C145.024 11.192 144.704 10.432 144.064 9.856C143.44 9.264 142.632 8.968 141.64 8.968C140.648 8.968 139.832 9.264 139.192 9.856C138.552 10.432 138.232 11.192 138.232 12.136C138.232 13.08 138.552 13.848 139.192 14.44C139.832 15.016 140.648 15.304 141.64 15.304ZM158.709 16.192C159.381 16.192 159.973 16.096 160.485 15.904C161.013 15.696 161.501 15.376 161.949 14.944L163.941 17.104C162.725 18.496 160.949 19.192 158.613 19.192C157.157 19.192 155.869 18.912 154.749 18.352C153.629 17.776 152.765 16.984 152.157 15.976C151.549 14.968 151.245 13.824 151.245 12.544C151.245 11.28 151.541 10.144 152.133 9.136C152.741 8.112 153.565 7.32 154.605 6.76C155.661 6.184 156.845 5.896 158.157 5.896C159.389 5.896 160.509 6.16 161.517 6.688C162.525 7.2 163.325 7.952 163.917 8.944C164.525 9.92 164.829 11.08 164.829 12.424L155.277 14.272C155.549 14.912 155.973 15.392 156.549 15.712C157.141 16.032 157.861 16.192 158.709 16.192ZM158.157 8.728C157.213 8.728 156.445 9.032 155.853 9.64C155.261 10.248 154.949 11.088 154.917 12.16L161.205 10.936C161.029 10.264 160.669 9.728 160.125 9.328C159.581 8.928 158.925 8.728 158.157 8.728ZM170.921 7.792C171.369 7.168 171.969 6.696 172.721 6.376C173.489 6.056 174.369 5.896 175.361 5.896V9.352C174.945 9.32 174.665 9.304 174.521 9.304C173.449 9.304 172.609 9.608 172.001 10.216C171.393 10.808 171.089 11.704 171.089 12.904V19H167.345V6.088H170.921V7.792ZM181.978 19.192C180.906 19.192 179.858 19.064 178.834 18.808C177.81 18.536 176.994 18.2 176.386 17.8L177.634 15.112C178.21 15.48 178.906 15.784 179.722 16.024C180.538 16.248 181.338 16.36 182.122 16.36C183.706 16.36 184.498 15.968 184.498 15.184C184.498 14.816 184.282 14.552 183.85 14.392C183.418 14.232 182.754 14.096 181.858 13.984C180.802 13.824 179.93 13.64 179.242 13.432C178.554 13.224 177.954 12.856 177.442 12.328C176.946 11.8 176.698 11.048 176.698 10.072C176.698 9.256 176.93 8.536 177.394 7.912C177.874 7.272 178.562 6.776 179.458 6.424C180.37 6.072 181.442 5.896 182.674 5.896C183.586 5.896 184.49 6 185.386 6.208C186.298 6.4 187.05 6.672 187.642 7.024L186.394 9.688C185.258 9.048 184.018 8.728 182.674 8.728C181.874 8.728 181.274 8.84 180.874 9.064C180.474 9.288 180.274 9.576 180.274 9.928C180.274 10.328 180.49 10.608 180.922 10.768C181.354 10.928 182.042 11.08 182.986 11.224C184.042 11.4 184.906 11.592 185.578 11.8C186.25 11.992 186.834 12.352 187.33 12.88C187.826 13.408 188.074 14.144 188.074 15.088C188.074 15.888 187.834 16.6 187.354 17.224C186.874 17.848 186.17 18.336 185.242 18.688C184.33 19.024 183.242 19.192 181.978 19.192Z" fill="white"/>
</svg>
